Coordinates
version=1
nRows=19
nColumns=24
inDegrees=yes

Units are S.I. units (second, meters, Newtons, ...)
Angles are in degrees.

endheader
time	pelvis_tilt	pelvis_list	pelvis_rotation	pelvis_tx	pelvis_ty	pelvis_tz	hip_flexion_r	hip_adduction_r	hip_rotation_r	knee_angle_r	ankle_angle_r	subtalar_angle_r	mtp_angle_r	hip_flexion_l	hip_adduction_l	hip_rotation_l	knee_angle_l	ankle_angle_l	subtalar_angle_l	mtp_angle_l	lumbar_extension	lumbar_bending	lumbar_rotation
      1.02900000	     -1.72177878	     -0.17371439	     -3.56097027	     -0.19223274	      0.96993149	      0.32917758	    -11.36172792	      3.30231458	     -4.48321950	    -10.45871919	     18.53970009	      1.58517322	     -0.00966282	     25.75164015	      0.62295254	     -4.55780507	     -1.45738187	      0.04529069	     -4.37938163	      1.56015168	      0.66020694	      2.95133439	      7.81805235
      1.03316667	     -1.74655635	     -0.09885297	     -3.63082153	     -0.18638037	      0.96931910	      0.32890129	    -11.41103473	      3.13978562	     -4.46271467	    -11.01811433	     18.62247735	      1.61213260	     -0.03363964	     25.72634681	      0.73934702	     -4.72192492	     -1.43430897	     -0.19069343	     -4.56549006	      1.58552507	      0.71665103	      2.85801910	      7.84826683
      1.03733333	     -1.78711911	      0.00196512	     -3.67883301	     -0.18054775	      0.96874101	      0.32855046	    -11.39389065	      2.93794759	     -4.54787200	    -11.67108821	     18.70572034	      1.83146683	     -0.09781310	     25.69151166	      0.89064230	     -4.67171138	     -1.43797559	     -0.50545776	     -5.02844485	      1.67747861	      0.78020195	      2.75345476	      7.92415523
      1.04150000	     -1.81170348	      0.10891086	     -3.72917811	     -0.17464419	      0.96825673	      0.32825701	    -11.42126988	      2.74627778	     -4.49348572	    -12.26746491	     18.70314233	      1.77574659	     -0.11463216	     25.68071942	      1.03987359	     -4.82938287	     -1.59700750	     -0.79101336	     -5.19285445	      1.70740712	      0.83808744	      2.62489992	      7.91230064
      1.04566667	     -1.84903296	      0.21753034	     -3.76963766	     -0.16873253	      0.96778475	      0.32794306	    -11.40157658	      2.55024186	     -4.46811392	    -12.93100428	     18.70041431	      1.73804367	     -0.12532381	     25.69787189	      1.19345795	     -4.93009973	     -1.84020385	     -1.12420839	     -5.47225825	      1.74741645	      0.91874810	      2.48389107	      7.91916295
      1.04983333	     -1.90976394	      0.30127220	     -3.78947629	     -0.16284195	      0.96731633	      0.32757419	    -11.32683534	      2.38013455	     -4.47475541	    -13.65224185	     18.70115831	      1.77376638	     -0.12700698	     25.75652739	      1.33296240	     -4.91641125	     -2.16127144	     -1.53977496	     -5.95752014	      1.84192779	      1.02261584	      2.39462536	      7.94622386
      1.05400000	     -1.94220856	      0.41109210	     -3.80117764	     -0.15689528	      0.96693850	      0.32720488	    -11.27818562	      2.18542329	     -4.45547083	    -14.37707883	     18.61609116	      1.71943892	     -0.11193675	     25.79391511	      1.49839054	     -4.92797998	     -2.55025665	     -1.96308169	     -6.35540507	      1.94373316	      1.09952570	      2.25377617	      7.93667578
      1.05816667	     -2.01256090	      0.51526821	     -3.80540343	     -0.15093586	      0.96656161	      0.32682258	    -11.16371451	      2.00096927	     -4.42254301	    -15.14846225	     18.49387610	      1.63324307	     -0.07291097	     25.88614236	      1.65669830	     -4.89823024	     -3.01010973	     -2.41164242	     -6.79717294	      2.06719507	      1.21712520	      2.13001762	      7.92595076
      1.06233333	     -2.05988553	      0.62378233	     -3.79251538	     -0.14494562	      0.96625184	      0.32640968	    -11.05706979	      1.81244508	     -4.40037356	    -15.95209023	     18.33593594	      1.52408121	     -0.00648268	     25.96199978	      1.82707474	     -4.84303466	     -3.52046713	     -2.89486394	     -7.25562053	      2.20921777	      1.31959698	      1.98853002	      7.90545055
      1.06650000	     -2.11551641	      0.74017683	     -3.76934908	     -0.13893494	      0.96597940	      0.32598881	    -10.92052672	      1.61928508	     -4.37405324	    -16.79072589	     18.12982906	      1.38391734	      0.08194171	     26.05685333	      2.00628628	     -4.77297176	     -4.07981509	     -3.40186578	     -7.70665224	      2.35158979	      1.43269458	      1.84261341	      7.87349923
      1.07066667	     -2.17326993	      0.85259562	     -3.73452723	     -0.13290994	      0.96574880	      0.32553130	    -10.75634032	      1.43098761	     -4.34747602	    -17.67317124	     17.87562954	      1.22818977	      0.20841546	     26.15929978	      2.18775610	     -4.66037100	     -4.67702039	     -3.92098400	     -8.18752763	      2.51575895	      1.54479199	      1.70632025	      7.83627773
      1.07483333	     -2.23339274	      0.97038386	     -3.68603835	     -0.12685734	      0.96555715	      0.32505309	    -10.56640307	      1.23964970	     -4.32368870	    -18.59622701	     17.57022238	      1.04106488	      0.37297535	     26.26891944	      2.37891923	     -4.53056896	     -5.30510406	     -4.44613578	     -8.65923806	      2.69336383	      1.66474727	      1.55797556	      7.78579798
      1.07900000	     -2.28625933	      1.09099543	     -3.62978276	     -0.12078622	      0.96541865	      0.32456117	    -10.35643262	      1.04431809	     -4.30964203	    -19.56448698	     17.20972673	      0.85035367	      0.56519674	     26.37291782	      2.57578300	     -4.39140921	     -5.95631265	     -4.97332831	     -9.10684251	      2.86707692	      1.78369276	      1.40099539	      7.73249243
      1.08316667	     -2.34111435	      1.21658169	     -3.56092588	     -0.11468820	      0.96532361	      0.32404067	    -10.11913236	      0.84466767	     -4.30016007	    -20.57303760	     16.78888829	      0.64243634	      0.79565807	     26.48081194	      2.78299080	     -4.23455905	     -6.62927629	     -5.48588932	     -9.54911046	      3.04303941	      1.90603785	      1.23879214	      7.67047529
      1.08733333	     -2.38167932	      1.35148492	     -3.46443311	     -0.10856142	      0.96527306	      0.32347274	     -9.88055663	      0.63699270	     -4.31512621	    -21.60569205	     16.33648161	      0.43123357	      1.19004424	     26.58417647	      3.01490378	     -4.04560221	     -7.33943726	     -5.98126855	    -10.06391200	      3.29706508	      2.01313356	      1.06049974	      7.59543467
      1.09150000	     -2.42576338	      1.49304458	     -3.39494845	     -0.10242471	      0.96528258	      0.32292248	     -9.58412515	      0.40996255	     -4.31992628	    -22.72661393	     15.76462605	      0.22544541	      1.48580565	     26.66204709	      3.23801424	     -3.89245325	     -8.00352588	     -6.44085121	    -10.36620416	      3.45848620	      2.12595931	      0.89309328	      7.52628465
      1.09566667	     -2.38623519	      1.66045215	     -3.26012927	     -0.09620374	      0.96540597	      0.32226545	     -9.38602969	      0.14270231	     -4.46038449	    -23.81350582	     14.99519668	      0.06131026	      6.99177300	     26.66091721	      3.52501790	     -3.69157799	     -8.70169586	     -6.89137680	    -10.83206654	      5.92998656	      2.14754063	      0.66643497	      7.45170387
      1.09983333	     -2.44025648	      1.81202615	     -3.18520150	     -0.09005178	      0.96546934	      0.32170869	     -9.01681893	     -0.09205770	     -4.43128235	    -25.03102470	     14.38887527	     -0.22809864	      7.04610157	     26.76203920	      3.75483198	     -3.57957583	     -9.41572448	     -7.26820724	    -11.09619213	      5.91595070	      2.27738441	      0.47650710	      7.37139068
      1.10400000	     -2.46182265	      1.96379078	     -3.06695310	     -0.08387413	      0.96559675	      0.32106999	     -8.67156966	     -0.33111450	     -4.46660636	    -26.25318847	     13.66865283	     -0.44888847	      7.17596132	     26.82766667	      4.01262783	     -3.39791082	    -10.14193594	     -7.59916821	    -11.45783311	      5.89917044	      2.36910645	      0.28078604	      7.28173655
